<svg xmlns="http://www.w3.org/2000/svg" viewBox="0 0 697.49 631.18"><defs><style>.cls-1{fill:#fff;}</style></defs><g id="Calque_2" data-name="Calque 2"><g id="Calque_1-2" data-name="Calque 1"><path class="cls-1" d="M315.67,391.06c20.64-3.25,6.84,33.51,33.06,32.93h0c26.22.58,12.41-36.18,33.05-32.93,21.16,3.33,16.35-31.54-33.05-32.34h0C299.32,359.52,294.51,394.39,315.67,391.06Z"/><path class="cls-1" d="M682.25,243.7,685,229c9.23-50.09,21.88-118.71-2.24-199.84L674.07,0,644,4.23a199,199,0,0,0-29.69,6.56C565.66,25.44,531.4,55.36,517.5,69.21L494.72,91.89s117.81,90.62,125.67,149.74c2.51,15.73,3.6,21.43,4.76,32.29l1.2,9.67.59,4.83.34,4.9c.43,6.52,1,13,1.53,19.46s.68,13,1,19.51.42,13,.72,19.49l-.09,39.07c-.4,10.11-.8,20.2-1.14,30.27-.52.89-1.1,1.84-1.69,2.78-1.5,2.38-3.08,4.82-4.86,7.23a159.58,159.58,0,0,1-11.57,14.13,170.24,170.24,0,0,1-13.35,13.09l-3.52,3.13-3.67,3c-2.4,2.05-5,3.9-7.53,5.8a230.11,230.11,0,0,1-32.84,20l-4.33,2.22c-1.45.73-3,1.35-4.45,2-3,1.3-5.89,2.79-9,3.95l-9.15,3.7-9.38,3.32c-3.09,1.17-6.31,2.09-9.51,3.05-1.12.32-2.23.67-3.34,1A74.42,74.42,0,0,0,503,490,81.57,81.57,0,0,0,498,464.58,100.11,100.11,0,0,0,488.77,446,117.73,117.73,0,0,0,501,424.44a89.31,89.31,0,0,0,6.26-21.33,75.45,75.45,0,0,0,.07-23.72,73.21,73.21,0,0,0-7.44-22.26,79,79,0,0,0-12.52-17.38c-2.3-2.53-4.72-4.71-7.14-6.9-1.21-1.08-2.46-2-3.68-3l-1.85-1.48c-.64-.51-1.11-.81-1.67-1.22-4.31-3.06-8.57-6.24-12.9-9.16-8.64-6-17.6-11.44-24.83-16.55-1-.65-1.77-1.27-2.56-1.89l-2.45-1.85c-.8-.61-1.4-1.23-2.13-1.84a21,21,0,0,1-2.07-1.9l-1.87-2.05c-.31-.36-.66-.67-.95-1.06l-.84-1.21a37.84,37.84,0,0,1-3.35-5.2,63,63,0,0,1-3.11-6c-1-2.15-2-4.2-3-6.47-1.83-4.53-3.72-9.08-5.39-13.85-7-18.91-13.56-38.49-21-57.73-.08,20.68.43,41.11,1.9,61.91.91,10.39,1.78,20.94,4.88,32.31a66.74,66.74,0,0,0,2.89,8.67l.85,2.2c.31.73.71,1.45,1.06,2.17l2.25,4.36a48.28,48.28,0,0,0,2.58,4.12c.91,1.32,1.81,2.76,2.75,4l2.9,3.57c1,1.2,2,2.41,2.92,3.4,7.78,8.57,14.94,15.48,21.74,22.7,3.51,3.53,6.78,7.17,10.16,10.73.39.43.91.93,1.19,1.3l.92,1.13c.6.75,1.27,1.48,1.81,2.24a51,51,0,0,1,3,4.47,36.18,36.18,0,0,1,3.7,8.3,19.82,19.82,0,0,1,.62,7c-.43,4.23-2.27,8.64-5.6,13.85A76.25,76.25,0,0,1,435,414.21c-.72.6-1.44,1.19-2.17,1.77l-1.1.84-.27.21c-.52.46-1.2,1.11-1.78,1.69a39.49,39.49,0,0,0-3.34,3.83,39.28,39.28,0,0,0-5,38.66,39.93,39.93,0,0,0,4.91,8.67l.79,1.29c.47.79,1,1.58,1.42,2.35.85,1.55,1.68,3.07,2.32,4.52a33.49,33.49,0,0,1,2.62,7.64,10.09,10.09,0,0,1,0,4.52,5.2,5.2,0,0,1-1.15,2.13,25.56,25.56,0,0,1-2.8,3.22c-2.76,2.88-7.94,6.65-14.33,10.09a155.88,155.88,0,0,1-21.91,9.48c-8,2.87-16.51,5.27-25.17,7.43-4.33,1.08-8.72,2.05-13.1,2.94-2,.4-4.06.78-6.06,1.13l-.14,0-.13,0q-3-.52-6.06-1.13c-4.38-.89-8.77-1.86-13.1-2.94-8.67-2.16-17.18-4.56-25.17-7.43a155.37,155.37,0,0,1-21.91-9.48C276,502.2,270.8,498.43,268,495.55a27.39,27.39,0,0,1-2.8-3.22,5.32,5.32,0,0,1-1.15-2.13,10.28,10.28,0,0,1,0-4.52,33,33,0,0,1,2.62-7.64c.63-1.45,1.47-3,2.31-4.52.43-.77,1-1.56,1.42-2.35l.8-1.29a40.31,40.31,0,0,0,4.9-8.67,39.24,39.24,0,0,0-5-38.66,41,41,0,0,0-3.35-3.83c-.57-.58-1.26-1.23-1.78-1.69l-.27-.21-1.1-.84c-.73-.58-1.45-1.17-2.17-1.77a76.18,76.18,0,0,1-14.14-15.43c-3.34-5.21-5.18-9.62-5.61-13.85a20.08,20.08,0,0,1,.63-7,36.18,36.18,0,0,1,3.7-8.3,46.89,46.89,0,0,1,3-4.47c.54-.76,1.21-1.49,1.8-2.24l.92-1.13c.28-.37.8-.87,1.19-1.3,3.39-3.56,6.66-7.2,10.17-10.73,6.8-7.22,13.95-14.13,21.74-22.7.94-1,1.94-2.2,2.92-3.4l2.89-3.57c.95-1.23,1.85-2.67,2.75-4A45.9,45.9,0,0,0,297,312l2.25-4.36c.36-.72.76-1.44,1.07-2.17l.84-2.2a65.26,65.26,0,0,0,2.89-8.67c3.1-11.37,4-21.92,4.88-32.31,1.47-20.8,2-41.23,1.9-61.91-7.45,19.24-14,38.82-21,57.73-1.67,4.77-3.55,9.32-5.38,13.85-.92,2.27-2,4.32-3,6.47a63,63,0,0,1-3.1,6,38.8,38.8,0,0,1-3.35,5.2l-.84,1.21c-.3.39-.65.7-1,1.06l-1.86,2.05a23.55,23.55,0,0,1-2.07,1.9c-.74.61-1.34,1.23-2.14,1.84l-2.44,1.85c-.79.62-1.57,1.24-2.56,1.89C254.93,306.52,246,312,237.33,318c-4.33,2.92-8.59,6.1-12.91,9.16-.56.41-1,.71-1.66,1.22l-1.85,1.48c-1.23,1-2.48,1.95-3.69,3-2.41,2.19-4.84,4.37-7.14,6.9a78.65,78.65,0,0,0-12.51,17.38,72.94,72.94,0,0,0-7.44,22.26,75.46,75.46,0,0,0,.06,23.72,89.79,89.79,0,0,0,6.27,21.33A117.12,117.12,0,0,0,208.71,446a100.74,100.74,0,0,0-9.19,18.54A81.57,81.57,0,0,0,194.46,490a74.83,74.83,0,0,0,1.95,19.65c-1.1-.35-2.21-.7-3.33-1-3.2-1-6.43-1.88-9.52-3.05l-9.37-3.32-9.16-3.7c-3.1-1.16-6-2.65-9-3.95-1.48-.69-3-1.31-4.46-2l-4.33-2.22a231.23,231.23,0,0,1-32.84-20c-2.54-1.9-5.13-3.75-7.52-5.8l-3.68-3-3.51-3.13a168.52,168.52,0,0,1-13.35-13.09,159.58,159.58,0,0,1-11.57-14.13c-1.78-2.41-3.37-4.85-4.87-7.23-.58-.94-1.16-1.89-1.69-2.78q-.51-15.11-1.14-30.27L67,351.78c.31-6.48.52-13,.73-19.49s.25-13.08,1-19.51c.55-6.46,1.1-12.94,1.52-19.46l.35-4.9.59-4.83,1.2-9.67c1.16-10.86,2.25-16.56,4.75-32.29C85,182.51,202.76,91.89,202.76,91.89L180,69.21c-13.91-13.85-48.16-43.77-96.82-58.42A198.89,198.89,0,0,0,53.49,4.23L23.41,0,14.76,29.11C-9.37,110.24,3.28,178.86,12.51,229l2.72,14.75a1194.46,1194.46,0,0,0-15.08,189l-.15,2,.14.4,2.18,6.15,1,2.79.76,2c.5,1.31,1,2.47,1.47,3.64,1,2.36,2,4.52,3,6.71,2.07,4.28,4.23,8.42,6.54,12.37a205.87,205.87,0,0,0,15,22.62,245,245,0,0,0,36.58,38.48c.88.75,1.77,1.48,2.66,2.22q5.32,4.43,10.86,8.55a441,441,0,0,0,268.41,90.59h.27a441,441,0,0,0,268.41-90.59q5.52-4.12,10.85-8.55c.89-.74,1.79-1.47,2.67-2.22a245.44,245.44,0,0,0,36.58-38.48,205.8,205.8,0,0,0,15-22.62c2.31-4,4.47-8.09,6.55-12.37,1-2.19,2-4.35,3-6.71.49-1.17,1-2.33,1.47-3.64l.76-2,1-2.79,2.19-6.15.14-.4-.16-2A1193.28,1193.28,0,0,0,682.25,243.7Z"/><circle class="cls-1" cx="483.27" cy="246.51" r="36.73"/><circle class="cls-1" cx="223.11" cy="246.51" r="36.73"/></g></g></svg>